<svg width="1083" height="319" viewBox="0 0 1083 319" fill="none" xmlns="http://www.w3.org/2000/svg">
<g filter="url(#filter0_i_1990_3253)">
<path d="M206.458 108.225C207.1 55.0809 207.42 28.5086 190.498 13.6314C173.575 -1.24575 147.302 2.51175 94.7568 10.0268L25.2341 19.9699C11.8991 21.877 2.27436 33.7172 3.11492 47.1801C4.09732 62.9148 18.7786 74.1425 34.194 70.9482L78.4732 61.773C94.3906 58.4747 102.349 56.8256 105.79 58.9249C108.971 60.8655 110.846 64.3844 110.684 68.1076C110.508 72.1357 104.703 77.826 93.0933 89.2067L52.5336 128.965C42.9522 138.357 38.1615 143.053 35.836 147.204C27.3114 162.422 32.0001 181.663 46.5731 191.266C50.5486 193.886 56.9642 195.859 69.7955 199.803C73.8095 201.037 75.8166 201.654 77.047 202.469C81.5609 205.46 82.9645 211.454 80.2466 216.133C79.5058 217.409 77.9808 218.851 74.9309 221.734L31.158 263.118C19.5254 274.116 19.5211 292.651 31.1487 303.684C43.0963 315.02 62.1855 313.606 72.306 300.635L120.017 239.484C134.635 220.749 141.944 211.381 141.421 201.864C141.227 198.351 140.308 194.916 138.72 191.776C134.418 183.268 123.404 178.796 101.375 169.851C93.566 166.681 89.6616 165.095 88.3103 162.132C87.814 161.043 87.5621 159.86 87.5725 158.664C87.6006 155.408 90.5226 152.375 96.3664 146.31L132.752 108.544C142.104 98.8374 146.78 93.9842 150.406 93.5362C154.348 93.0491 158.223 94.8694 160.372 98.2179C162.348 101.297 161.617 108.004 160.156 121.417L155.226 166.678C153.521 182.333 166.339 195.756 182.037 194.756C195.239 193.914 205.555 183.039 205.715 169.796L206.458 108.225Z" fill="url(#paint0_linear_1990_3253)"/>
</g>
<path d="M273 72.3C278.8 72.3 286.34 73.46 296.49 73.46C310.12 73.46 317.95 72.3 321.14 72.3C323.75 72.3 326.94 73.46 326.94 76.65C326.94 80.42 323.17 80.42 319.11 81.29C315.34 82.16 311.57 83.03 311.57 87.38C311.57 90.57 315.34 100.43 322.88 118.7L333.32 143.93C334.19 145.67 336.22 150.6 338.25 154.37C339.12 156.11 339.99 157.85 341.44 157.85C342.89 157.85 343.47 156.69 344.34 155.53C345.21 154.08 350.14 143.35 358.84 124.21C368.7 102.46 372.18 91.73 372.18 87.96C372.18 83.03 366.38 82.45 362.61 81.58C358.26 80.71 355.07 79.84 355.07 77.23C355.07 74.04 356.81 72.3 361.16 72.3C366.96 72.3 372.76 73.46 378.85 73.46C386.97 73.46 392.19 72.3 394.8 72.3C398.28 72.3 398.86 73.75 398.86 76.36C398.86 80.42 397.7 80.13 392.19 81.87C385.81 84.19 382.04 92.31 379.14 98.98C371.02 116.09 355.65 150.6 353.62 155.24C352.17 158.72 346.08 169.16 346.08 175.54V235.86C346.08 243.69 349.27 246.88 355.65 247.75C359.71 248.33 364.64 248.33 364.64 252.1C364.64 255.58 362.9 256.16 357.39 256.16C351.88 256.16 345.5 255 333.61 255C321.14 255 313.02 256.16 306.35 256.16C300.84 256.16 299.97 255 299.97 252.39C299.97 248.62 306.06 247.75 311.57 246.88C317.37 245.72 319.4 243.98 319.4 234.12V177.28C319.4 174.67 318.53 170.9 316.5 166.26L288.66 101.59C282.57 87.09 279.09 82.45 273.58 81.29C267.2 79.84 266.91 78.97 266.91 77.23C266.91 74.04 268.94 72.3 273 72.3ZM417.533 68.24C425.363 68.24 431.743 74.33 431.743 85.64C431.743 96.37 425.653 102.75 417.533 102.75C409.703 102.75 403.613 96.37 403.613 85.64C403.613 74.33 409.993 68.24 417.533 68.24ZM427.103 120.15C429.133 120.15 429.423 121.89 429.423 123.92V234.7C429.423 244.27 431.163 246.01 439.283 248.04C444.793 249.49 446.243 250.36 446.243 252.68C446.243 255 445.083 256.16 441.313 256.16C436.963 256.16 429.713 255 417.243 255C405.643 255 396.073 256.16 393.463 256.16C389.693 256.16 388.823 254.42 388.823 252.68C388.823 249.49 391.433 248.33 395.493 247.75C403.613 246.3 405.063 244.56 405.063 235.86V152.34C405.063 145.96 402.453 144.51 399.263 143.06C395.203 141.32 390.273 141.9 390.273 138.13C390.273 136.1 392.303 134.94 395.493 133.78C406.803 130.01 414.633 126.53 421.303 123.05C424.203 121.6 425.943 120.15 427.103 120.15ZM502.032 120.15C525.232 120.15 542.052 137.26 542.052 167.13C542.052 181.05 542.052 184.24 534.512 184.24H482.602C478.252 184.24 475.932 186.27 475.932 191.2C475.932 220.2 488.692 243.98 508.702 243.98C535.672 243.98 533.932 218.46 539.152 218.46C541.472 218.46 542.052 219.91 542.052 222.52C542.052 237.31 527.552 258.77 502.902 258.77C469.262 258.77 449.832 230.93 449.832 192.36C449.832 148.86 471.002 120.15 502.032 120.15ZM476.512 168C476.512 174.67 478.252 175.25 487.532 175.25C493.042 175.25 499.422 174.67 505.512 173.51C517.982 170.9 520.882 168 520.882 156.11C520.882 138.71 513.052 128.56 501.452 128.56C487.822 128.56 476.512 146.54 476.512 168ZM587.698 50.55C589.728 50.55 589.728 53.74 589.728 55.48V238.47C589.728 245.43 594.078 245.72 598.428 247.17C603.068 248.62 607.418 248.91 607.418 252.39C607.418 254.71 605.388 256.16 603.068 256.16C601.908 256.16 594.368 255 578.128 255C562.758 255 555.508 256.16 554.058 256.16C551.738 256.16 549.128 255.58 549.128 252.39C549.128 250.07 551.448 248.33 555.508 247.75C559.568 247.17 565.368 246.01 565.368 237.89V78.68C565.368 72.88 562.468 72.01 558.988 71.14C553.768 69.98 550.868 69.98 550.868 66.79C550.868 64.18 552.318 63.6 556.958 62.15C583.638 53.74 584.798 50.55 587.698 50.55ZM706.126 50.55C707.286 50.55 707.576 52.29 707.576 54.9V234.12C707.576 239.92 708.156 242.82 710.186 242.82C715.116 242.82 719.756 230.06 721.496 230.06C722.946 230.06 724.106 232.09 724.106 236.73C724.106 242.82 722.366 246.88 719.176 248.33L704.386 254.71C697.716 257.61 693.366 258.77 691.336 258.77C685.246 258.77 686.986 243.4 683.796 243.4C682.346 243.4 679.736 247.75 672.776 252.68C666.106 257.61 660.596 258.77 654.506 258.77C626.666 258.77 610.716 233.54 610.716 191.49C610.716 152.34 631.886 120.15 659.436 120.15C662.626 120.15 665.816 120.44 668.716 121.31C674.516 122.76 681.186 128.27 682.056 128.27C683.216 128.27 683.506 127.69 683.506 126.82V77.81C683.506 69.69 668.716 71.72 668.716 66.79C668.716 65.34 669.006 63.89 672.196 63.02L680.606 60.41C692.496 56.64 704.676 50.55 706.126 50.55ZM637.106 186.85C637.106 226.58 646.386 243.98 663.786 243.98C675.676 243.98 683.506 236.44 683.506 227.45V153.79C683.506 140.16 675.096 129.72 663.496 129.72C648.706 129.72 637.106 149.73 637.106 186.85ZM749.934 225.71C758.344 225.71 764.434 233.54 764.434 241.95C764.434 250.94 758.054 258.48 749.934 258.48C741.814 258.48 735.724 250.94 735.724 241.95C735.724 232.67 742.104 225.71 749.934 225.71ZM780.69 122.76C786.49 122.76 796.06 123.92 805.34 123.92C814.33 123.92 820.13 122.76 823.9 122.76C828.25 122.76 829.41 124.21 829.41 126.53C829.41 128.56 827.38 129.72 825.06 130.01C821.58 130.59 817.23 130.88 817.23 134.65C817.23 137.55 835.5 174.38 838.11 174.38C840.43 174.38 845.07 165.1 850 155.82C854.64 147.12 858.99 139.87 858.99 135.52C858.99 132.62 855.51 131.46 852.03 130.59C848.55 129.72 845.07 129.43 845.07 126.53C845.07 124.21 846.23 122.76 849.13 122.76C853.48 122.76 859.57 123.92 867.98 123.92C875.81 123.92 881.03 122.76 884.22 122.76C887.7 122.76 888.86 124.5 888.86 126.82C888.86 129.43 884.51 130.01 880.16 131.17C872.91 133.2 867.4 140.45 858.12 156.98C845.65 179.02 843.62 180.47 843.62 183.95C843.62 187.43 849.42 196.42 856.38 208.6C861.31 217.01 866.82 227.16 870.59 233.25C876.68 243.11 879.87 246.59 884.51 247.75C888.86 248.91 891.47 249.78 891.47 252.68C891.47 255 889.44 256.16 886.25 256.16C883.64 256.16 877.26 255 863.63 255C851.45 255 844.2 256.16 841.59 256.16C838.11 256.16 835.21 255 835.21 251.52C835.21 249.2 838.4 248.62 841.59 247.75C844.49 246.88 847.39 246.01 847.39 242.53C847.39 240.79 844.78 235.28 838.69 223.97C834.92 217.01 832.31 211.5 829.99 207.44C828.25 204.25 827.67 202.51 825.93 202.51C823.32 202.51 821.87 205.99 814.91 219.04C807.95 231.8 805.63 237.89 805.63 242.24C805.63 245.72 807.66 247.17 811.72 248.04C814.33 248.62 818.39 249.49 818.39 252.1C818.39 254.71 817.23 256.16 811.72 256.16C809.11 256.16 803.6 255 794.61 255C785.62 255 780.69 256.16 778.37 256.16C775.18 256.16 772.86 255.87 772.86 252.68C772.86 250.94 773.44 249.2 780.4 248.04C786.78 246.88 790.84 243.4 797.51 232.96L811.72 210.34C815.49 204.25 820.71 194.97 820.71 191.49C820.71 188.3 814.33 178.73 805.92 164.52L791.13 139.58C790.26 138.42 786.49 131.46 781.56 130.59C777.21 129.72 774.02 129.43 774.02 126.82C774.02 124.21 775.76 122.76 780.69 122.76ZM886.937 122.76C893.607 122.76 902.017 123.92 910.137 123.92C917.097 123.92 926.957 122.76 928.987 122.76C933.047 122.76 934.207 123.92 934.207 126.53C934.207 128.56 931.597 129.14 928.697 129.72C924.927 130.59 920.577 130.88 920.577 136.97C920.577 141.61 924.927 154.66 929.277 169.45C935.657 190.91 943.487 214.98 945.227 214.98C946.677 214.98 951.607 201.35 957.987 179.31C966.397 149.73 968.717 143.35 968.717 136.68C968.717 132.91 964.657 131.46 960.887 130.88C957.117 130.3 953.347 130.01 953.347 127.11C953.347 123.92 955.377 122.76 957.987 122.76C960.017 122.76 966.687 123.92 974.807 123.92C979.157 123.92 982.637 122.76 987.277 122.76C990.757 122.76 991.917 123.92 991.917 126.82C991.917 129.43 989.597 129.72 986.987 130.3C984.087 130.88 980.607 134.65 976.837 145.96L961.467 191.49C953.057 216.43 946.387 237.6 941.747 252.1C934.207 275.3 931.597 288.64 928.117 301.11C924.637 313.87 922.317 318.22 911.877 318.22C899.987 318.22 897.667 315.03 897.667 302.56C897.667 297.05 899.117 291.25 909.847 290.38C913.327 290.09 918.837 289.8 921.447 286.9C924.927 282.84 932.467 263.12 932.467 255.58C932.467 250.65 931.597 247.46 930.147 242.82L911.877 187.43C900.857 154.37 896.217 140.45 894.187 136.97C892.447 133.78 890.997 130.88 886.067 130.3C883.167 130.01 881.717 128.85 881.717 126.53C881.717 124.21 882.587 122.76 886.937 122.76ZM1000.73 115.51C1003.34 115.51 1003.92 116.38 1005.37 119.57C1007.4 123.92 1010.59 123.92 1019.29 123.92C1055.25 123.92 1064.82 123.63 1072.94 123.63C1077.58 123.63 1078.16 125.08 1078.16 126.53C1078.16 128.85 1076.13 132.62 1072.36 139.58L1019.29 237.02C1018.13 239.05 1016.1 243.4 1016.1 245.14C1016.1 246.3 1016.39 247.17 1023.64 247.17C1048.87 247.17 1060.47 246.59 1066.85 228.9C1071.49 215.85 1070.62 209.47 1074.39 209.47C1077.29 209.47 1078.45 211.5 1078.45 218.17C1078.45 230.35 1078.16 247.46 1078.16 248.91C1077.87 255 1076.13 255.58 1073.52 255.58C1068.88 255.58 1039.88 255 1030.89 255C1022.77 255 1003.05 255.58 989.712 255.58C987.102 255.58 986.522 254.42 986.522 252.39C986.522 249.78 988.842 246.88 991.452 242.24L1043.65 144.22C1046.26 139.29 1048.58 135.81 1048.58 134.36C1048.58 132.91 1047.42 132.04 1037.85 132.04C1025.38 132.04 1016.97 133.2 1011.75 136.68C1005.95 140.45 1002.76 148.57 999.862 154.66C997.832 159.01 996.962 161.62 994.642 161.62C992.032 161.62 991.452 159.88 991.452 157.27C991.452 154.66 992.032 150.31 993.482 140.16C996.672 118.99 997.832 115.51 1000.73 115.51Z" fill="white"/>
<defs>
<filter id="filter0_i_1990_3253" x="3.06372" y="3.43164" width="203.611" height="312.005" filterUnits="userSpaceOnUse" color-interpolation-filters="sRGB">
<feFlood flood-opacity="0" result="BackgroundImageFix"/>
<feBlend mode="normal" in="SourceGraphic" in2="BackgroundImageFix" result="shape"/>
<feColorMatrix in="SourceAlpha" type="matrix" values="0 0 0 0 0 0 0 0 0 0 0 0 0 0 0 0 0 0 127 0" result="hardAlpha"/>
<feOffset dy="4.08502"/>
<feGaussianBlur stdDeviation="11.5692"/>
<feComposite in2="hardAlpha" operator="arithmetic" k2="-1" k3="1"/>
<feColorMatrix type="matrix" values="0 0 0 0 0.98 0 0 0 0 1 0 0 0 0 0 0 0 0 0.3 0"/>
<feBlend mode="normal" in2="shape" result="effect1_innerShadow_1990_3253"/>
</filter>
<linearGradient id="paint0_linear_1990_3253" x1="162.856" y1="9.12338" x2="-0.150632" y2="330.87" gradientUnits="userSpaceOnUse">
<stop offset="0.0520833" stop-color="#FFC21B"/>
<stop offset="0.234375" stop-color="#B1A5B9"/>
<stop offset="0.385417" stop-color="#F46FC8"/>
<stop offset="0.796875" stop-color="#FF5F25"/>
<stop offset="1" stop-color="#6D05F3"/>
</linearGradient>
</defs>
</svg>
