<svg width="350" height="124" viewBox="0 0 350 124" fill="none" xmlns="http://www.w3.org/2000/svg">
<g clip-path="url(#clip0_536_61)">
<path d="M94.5607 45.5692C94.7794 27.4938 94.8888 18.4561 89.1281 13.3974C83.3674 8.33879 74.4196 9.61527 56.524 12.1682L33.0572 15.516C28.5301 16.1618 25.2598 20.1788 25.5454 24.7428V24.7428C25.8786 30.0655 30.8472 33.8602 36.0699 32.7807L51.1087 29.6724C56.4798 28.5622 59.1654 28.0072 60.3298 28.7054C61.4346 29.3679 62.083 30.5866 62.0152 31.873C61.9437 33.2288 59.983 35.146 56.0614 38.9804L42.3446 52.3922C39.1463 55.5194 37.5471 57.083 36.7616 58.4596C33.7865 63.6735 35.397 70.3032 40.4326 73.5711C41.7621 74.4339 43.9004 75.0896 48.177 76.4009V76.4009C49.5148 76.8112 50.1838 77.0163 50.5953 77.2848C52.1552 78.3025 52.6372 80.3679 51.689 81.9709C51.4388 82.3938 50.9298 82.8739 49.9117 83.834L35.0815 97.8195C31.1248 101.551 31.1192 107.841 35.0692 111.58V111.58C39.1209 115.414 45.5934 114.931 49.0305 110.537L65.2025 89.8621C70.1396 83.5504 72.6081 80.3945 72.4601 77.1903C72.4027 75.9469 72.0777 74.7305 71.5073 73.6241C70.0374 70.7731 66.3238 69.269 58.8966 66.2609V66.2609C56.2634 65.1944 54.9469 64.6612 54.4841 63.6679C54.3053 63.2843 54.2164 62.865 54.2241 62.4419C54.2439 61.3463 55.2308 60.3246 57.2045 58.2812L69.5519 45.4978C72.6981 42.2406 74.2712 40.612 75.4885 40.4507C76.8527 40.2699 78.1971 40.9002 78.9307 42.0645C79.5853 43.1034 79.3394 45.3543 78.8478 49.8562L77.1741 65.1832C76.5949 70.487 80.938 75.0314 86.2627 74.6928V74.6928C90.7482 74.4076 94.2563 70.7144 94.3107 66.2201L94.5607 45.5692Z" fill="url(#paint0_linear_536_61)"/>
</g>
<path d="M139.059 35.8469C131.382 35.8469 124.873 41.3541 124.873 48.2798C124.873 56.3737 130.381 59.7949 138.808 65.1352C144.315 68.6397 146.902 72.5615 146.902 77.5681C146.902 84.2434 142.73 88.7493 137.557 88.7493C131.882 88.7493 128.962 83.6594 127.21 76.3999C126.626 73.98 126.959 73.5628 125.708 73.5628C124.957 73.5628 124.54 73.5628 124.54 79.5707C124.54 88.0818 124.54 88.4156 128.545 89.7506C130.631 90.4182 133.051 90.7519 135.721 90.7519C145.317 90.7519 151.909 84.5772 151.909 75.1482C151.909 66.3034 146.318 62.9657 138.141 58.0426C132.884 54.8718 129.88 51.2837 129.88 45.9434C129.88 41.521 133.468 37.8495 137.723 37.8495C141.311 37.8495 143.481 40.1859 145.233 44.1077C147.152 48.3633 146.568 50.7831 147.737 50.7831C148.404 50.7831 148.571 50.6996 148.654 50.0321C148.738 49.5315 148.738 46.6944 148.738 41.1038C148.738 38.3502 148.404 38.1833 146.652 37.4323C144.983 36.6813 141.729 35.8469 139.059 35.8469Z" fill="#F6F7F9"/>
<path d="M162.061 40.3528C161.227 40.3528 160.976 42.1885 158.473 46.1938C155.553 50.8665 153.8 52.0347 153.8 52.9526C153.8 53.787 154.134 53.8704 155.97 53.8704C156.888 53.8704 157.806 54.1208 157.806 55.289V83.1587C157.806 87.8315 159.474 90.4182 164.231 90.4182C169.988 90.4182 171.156 83.7428 171.156 82.7415C171.156 82.2408 170.823 82.0739 170.405 82.0739C169.654 82.0739 169.154 83.5759 168.403 84.8275C167.652 85.9957 166.651 86.9136 165.232 86.9136C163.063 86.9136 162.812 85.3282 162.812 83.6594V55.9565C162.812 54.538 163.229 54.538 164.231 54.538H167.485C169.654 54.538 169.905 53.8704 169.905 52.9526C169.905 51.8678 169.321 51.7009 167.402 51.7009H164.398C163.229 51.7009 162.812 51.0334 162.812 50.1155V42.1885C162.812 40.77 162.645 40.3528 162.061 40.3528Z" fill="#F6F7F9"/>
<path d="M188.569 50.6996C178.973 50.6996 172.048 58.4598 172.048 63.216C172.048 64.5511 172.465 65.0517 173.8 65.0517C175.552 65.0517 177.805 64.4676 179.14 59.628C180.392 55.2055 182.895 52.7023 186.483 52.7023C189.153 52.7023 190.071 54.2877 190.071 58.126V62.7988C190.071 65.5524 189.988 65.5524 182.311 71.0596C174.801 76.4833 172.381 78.8197 172.381 83.0753C172.381 87.5811 174.801 90.4182 178.473 90.4182C182.478 90.4182 185.065 88.7493 188.068 85.7454C188.903 84.911 189.487 84.3269 189.904 84.3269C190.405 84.3269 190.488 84.911 190.739 85.9123C191.49 88.8328 192.741 90.0844 195.328 90.0844C199.667 90.0844 201.92 85.5785 201.92 83.409C201.92 82.4077 201.67 82.1574 201.252 82.1574C200.668 82.1574 200.418 83.0753 200.084 83.9931C199.75 84.9944 198.999 85.9123 197.414 85.9123C195.829 85.9123 195.078 84.7441 195.078 82.7415V56.2903C195.078 52.4519 193.909 50.6996 188.569 50.6996ZM177.889 82.0739C177.889 78.5694 179.724 75.8158 183.062 72.8953C186.4 69.9748 188.569 68.5563 189.404 68.5563C189.904 68.5563 190.071 68.8901 190.071 69.3907V79.2369C190.071 81.2395 189.237 82.4077 188.068 83.5759C186.233 85.4116 184.23 86.9136 182.061 86.9136C179.724 86.9136 177.889 85.3282 177.889 82.0739Z" fill="#F6F7F9"/>
<path d="M210.153 30.3397C209.486 30.3397 208.067 31.5914 202.81 33.4271C201.475 33.9277 201.392 34.0946 201.392 34.5118C201.392 35.0959 201.392 35.1794 203.561 35.5966C205.314 35.9304 205.564 36.5979 205.564 37.5158V85.5785C205.564 87.3308 204.563 87.4977 203.311 87.748C202.477 87.9149 201.559 87.9984 201.559 88.7493C201.559 89.4169 201.893 89.7506 202.56 89.7506C203.144 89.7506 206.232 89.4169 208.484 89.4169C210.153 89.4169 213.992 89.7506 214.743 89.7506C215.16 89.7506 215.577 89.4169 215.577 88.9997C215.577 88.0818 214.492 87.9149 213.157 87.748C211.405 87.5811 210.571 86.8302 210.571 84.16V74.0635C210.571 72.1443 213.658 69.5576 213.992 69.5576C214.576 69.5576 219.666 78.7363 221.835 82.5746C223.087 84.8275 223.754 86.2461 223.754 86.7467C223.754 87.4977 222.92 87.6646 222.086 87.8315C221.084 87.9984 220.333 88.1652 220.333 88.9162C220.333 89.5003 220.667 89.7506 221.418 89.7506C222.252 89.7506 224.589 89.4169 227.009 89.4169C229.762 89.4169 231.765 89.7506 232.516 89.7506C233.434 89.7506 233.851 89.5838 233.851 88.8328C233.851 88.2487 233.684 88.0818 231.765 87.748C230.68 87.5811 229.929 86.5798 227.676 82.9084C224.172 77.1509 221.668 72.0609 218.498 67.0543C218.331 66.804 217.58 65.6358 217.58 65.2186C217.58 64.7179 218.08 64.1339 218.998 63.1325L221.585 60.2955C222.252 59.5445 224.005 57.8757 225.757 56.2903C227.426 54.7883 229.095 53.6201 230.43 53.2864C231.431 53.036 231.932 52.7023 231.932 52.2016C231.932 51.5341 231.598 51.3672 230.513 51.3672C229.095 51.3672 226.842 51.7009 224.672 51.7009C222.67 51.7009 220.417 51.3672 218.915 51.3672C217.58 51.3672 217.329 51.6175 217.329 52.285C217.329 52.7023 217.58 53.1195 218.247 53.2864C219.833 53.6201 221.835 53.5367 221.835 55.3724C221.835 56.2068 221.835 56.7909 216.662 62.8822L212.74 67.4715C212.406 67.8888 211.655 68.7232 211.071 68.7232C210.654 68.7232 210.571 68.1391 210.571 66.7206V31.341C210.571 30.7569 210.487 30.3397 210.153 30.3397Z" fill="#F6F7F9"/>
<path d="M245.839 50.6996C238.413 50.6996 231.654 57.7088 231.654 71.3933C231.654 82.658 236.911 90.4182 246.173 90.4182C252.515 90.4182 256.52 84.911 256.52 80.4051C256.52 79.5707 256.353 79.3204 255.936 79.3204C255.519 79.3204 255.268 80.0713 254.851 81.323C253.599 85.0779 251.096 86.9136 247.007 86.9136C241.083 86.9136 237.161 80.3217 237.161 70.7258C237.161 69.4742 237.829 69.0569 238.914 69.0569H254.601C256.353 69.0569 256.353 68.3894 256.353 64.0504C256.353 55.4559 251.847 50.6996 245.839 50.6996ZM237.328 64.8848C237.328 58.126 240.833 52.7023 245.255 52.7023C249.177 52.7023 251.68 56.2068 251.68 61.7975C251.68 63.8835 251.43 64.8848 250.595 65.5524C249.26 66.6371 242.502 66.7206 241.083 66.7206C237.328 66.7206 237.328 66.3034 237.328 64.8848Z" fill="#F6F7F9"/>
<path d="M260.442 36.8482C259.691 36.8482 259.107 37.182 259.107 37.7661C259.107 38.6839 259.858 38.6839 260.609 38.8508C263.279 39.3515 263.78 39.3515 263.78 43.1898V82.3243C263.78 86.8302 263.363 86.8302 260.693 87.4143C259.858 87.5811 259.107 87.748 259.107 88.6659C259.107 89.5003 259.608 89.7506 260.693 89.7506C262.028 89.7506 263.78 89.4169 266.7 89.4169C269.037 89.4169 270.622 89.7506 271.874 89.7506C273.543 89.7506 274.043 89.5003 274.043 88.7493C274.043 87.9984 273.292 87.748 272.208 87.6646C269.287 87.4977 269.287 84.4103 269.287 81.9905V64.8848C269.287 63.8001 271.373 61.2134 272.124 61.2134C272.291 61.2134 272.708 61.2968 273.793 63.5498C275.045 66.1365 277.965 71.7271 283.389 82.4912C284.14 83.9097 284.474 84.8275 284.474 85.5785C284.474 86.7467 283.639 87.1639 282.555 87.3308C281.219 87.5811 279.634 87.4977 279.634 88.5824C279.634 89.4169 280.135 89.7506 281.72 89.7506C282.888 89.7506 285.225 89.4169 287.978 89.4169C290.398 89.4169 292.067 89.7506 293.569 89.7506C294.987 89.7506 295.321 89.25 295.321 88.6659C295.321 88.0818 294.904 87.9149 294.236 87.748C293.569 87.5811 292.734 87.3308 292.317 87.0805C291.733 86.7467 290.815 85.7454 288.646 81.4064L276.63 57.7922C276.296 57.2081 276.046 56.624 276.046 56.3737C276.046 55.4559 278.216 52.5354 282.555 47.2785C287.227 41.6044 290.231 38.9343 292.317 38.7674C294.236 38.6005 294.236 38.2667 294.236 37.7661C294.236 37.0985 293.736 36.8482 292.484 36.8482C291.483 36.8482 289.23 37.182 286.977 37.182C285.225 37.182 281.637 36.8482 281.136 36.8482C279.884 36.8482 279.467 37.2654 279.467 37.7661C279.467 38.6839 280.468 38.6839 281.553 38.9343C282.721 39.1846 283.89 39.5184 283.89 40.77C283.89 42.7726 275.629 52.9526 273.209 55.7896C271.039 58.3763 269.788 60.2121 269.538 60.2121C269.371 60.2121 269.287 59.7949 269.287 58.3763V41.7713C269.287 39.268 271.206 39.1846 272.291 38.9343C273.459 38.6839 274.043 38.8508 274.043 37.8495C274.043 37.182 273.71 36.8482 272.625 36.8482C271.123 36.8482 268.953 37.182 266.867 37.182C264.281 37.182 261.444 36.8482 260.442 36.8482Z" fill="#F6F7F9"/>
<path d="M301.44 36.8482C299.855 36.8482 298.353 38.0999 298.353 41.0203C298.353 43.6905 299.605 45.1924 301.357 45.1924C303.109 45.1924 304.528 44.0243 304.528 41.0203C304.528 38.0999 303.109 36.8482 301.44 36.8482ZM303.276 50.6996C302.776 50.6996 301.023 52.6188 297.352 53.9539C295.349 54.7049 294.682 55.0386 294.682 55.5393C294.682 56.4572 295.766 56.3737 296.851 56.7075C297.936 57.0413 298.937 57.4585 298.937 59.2942V84.3269C298.937 86.7467 298.27 87.3308 296.017 87.6646C294.849 87.8315 294.098 88.0818 294.098 88.8328C294.098 89.4169 294.431 89.7506 295.182 89.7506C295.433 89.7506 297.101 89.4169 301.357 89.4169C305.279 89.4169 306.864 89.7506 307.699 89.7506C308.7 89.7506 308.95 89.5003 308.95 88.9162C308.95 87.9984 307.699 87.9984 306.447 87.6646C305.029 87.2474 303.944 86.9136 303.944 84.16V51.5341C303.944 51.1169 303.777 50.6996 303.276 50.6996Z" fill="#F6F7F9"/>
<path d="M318.77 40.3528C317.935 40.3528 317.685 42.1885 315.182 46.1938C312.261 50.8665 310.509 52.0347 310.509 52.9526C310.509 53.787 310.843 53.8704 312.678 53.8704C313.596 53.8704 314.514 54.1208 314.514 55.289V83.1587C314.514 87.8315 316.183 90.4182 320.939 90.4182C326.697 90.4182 327.865 83.7428 327.865 82.7415C327.865 82.2408 327.531 82.0739 327.114 82.0739C326.363 82.0739 325.862 83.5759 325.111 84.8275C324.36 85.9957 323.359 86.9136 321.941 86.9136C319.771 86.9136 319.521 85.3282 319.521 83.6594V55.9565C319.521 54.538 319.938 54.538 320.939 54.538H324.193C326.363 54.538 326.613 53.8704 326.613 52.9526C326.613 51.8678 326.029 51.7009 324.11 51.7009H321.106C319.938 51.7009 319.521 51.0334 319.521 50.1155V42.1885C319.521 40.77 319.354 40.3528 318.77 40.3528Z" fill="#F6F7F9"/>
<defs>
<linearGradient id="paint0_linear_536_61" x1="24.4362" y1="10.6905" x2="24.4362" y2="120.775" gradientUnits="userSpaceOnUse">
<stop offset="0.0520833" stop-color="#FFC21B"/>
<stop offset="0.234375" stop-color="#B1A5B9"/>
<stop offset="0.385417" stop-color="#F46FC8"/>
<stop offset="0.796875" stop-color="#FF5F25"/>
<stop offset="1" stop-color="#6D05F3"/>
</linearGradient>
<clipPath id="clip0_536_61">
<rect width="121.834" height="121.834" fill="white"/>
</clipPath>
</defs>
</svg>
